HIERARCHY
ROOT Joint1
{
	OFFSET 0.000000 0.000000 0.000000
	CHANNELS 6 Xposition Yposition Zposition Xrotation Yrotation Zrotation
	JOINT Joint2
	{
		OFFSET -0.000000 0.000000 1.456275
		CHANNELS 6 Xposition Yposition Zposition Xrotation Yrotation Zrotation
		JOINT Joint3
		{
			OFFSET -0.000000 0.000002 1.471446
			CHANNELS 6 Xposition Yposition Zposition Xrotation Yrotation Zrotation
			JOINT Joint4
			{
				OFFSET 0.625745 0.000000 0.917755
				CHANNELS 6 Xposition Yposition Zposition Xrotation Yrotation Zrotation
				JOINT Joint5
				{
					OFFSET -0.629534 0.000001 0.940221
					CHANNELS 6 Xposition Yposition Zposition Xrotation Yrotation Zrotation
					JOINT Joint6
					{
						OFFSET -0.000001 0.113772 1.960660
						CHANNELS 6 Xposition Yposition Zposition Xrotation Yrotation Zrotation
						JOINT Joint7
						{
							OFFSET -0.669733 -0.113771 0.388340
							CHANNELS 6 Xposition Yposition Zposition Xrotation Yrotation Zrotation
							End Site
							{
								OFFSET 0.005509 0.005509 0.438980
							}
						}
					}
				}
			}
		}
	}
}
MOTION
Frames: 9
Frame Time: 0.041667
0.000000 0.000000 0.000000 -0.000000 1.019410 -29.327613 -0.000000 0.000000 1.456275 -0.000001 -44.923462 0.000002 -0.000000 0.000002 1.471446 -0.000010 -1.133455 126.764677 0.625745 0.000001 0.917755 -0.000002 47.270500 0.000004 -0.629534 0.000001 0.940221 0.000001 1.709738 -36.982285 -0.000001 0.113772 1.960660 -88.303875 129.387306 0.000002 -0.669733 -0.113770 0.388340 0.019031 3.263416 89.584884 
0.000000 0.000000 0.000000 -0.000000 1.019410 -29.304828 -0.000000 0.000000 1.456275 -0.000002 -44.923507 -0.000000 -0.000000 0.000002 1.471446 -0.000012 -1.133458 126.666159 0.625745 0.000000 0.917755 0.000001 47.338672 0.000003 -0.629534 0.000001 0.940221 0.000001 1.709737 -36.953550 -0.000001 0.113772 1.960661 -88.303875 129.356693 0.000005 -0.669733 -0.113771 0.388340 0.018585 3.263861 89.620135 
0.000000 0.000000 0.000000 -0.000000 1.019410 -29.266930 -0.000000 0.000000 1.456275 -0.000001 -44.923589 -0.000004 -0.000000 0.000002 1.471446 -0.000009 -1.133453 126.502289 0.625745 0.000000 0.917755 -0.000002 47.452090 0.000003 -0.629533 0.000001 0.940221 0.000001 1.709737 -36.905773 -0.000001 0.113772 1.960661 -88.303875 129.305740 0.000004 -0.669733 -0.113771 0.388339 0.017855 3.264600 89.678779 
0.000000 0.000000 0.000000 -0.000000 1.019410 -29.213966 -0.000000 -0.000000 1.456275 -0.000001 -44.923701 0.000002 -0.000000 0.000002 1.471446 -0.000010 -1.133451 126.273286 0.625745 0.000000 0.917755 -0.000001 47.610571 0.000001 -0.629534 0.000001 0.940221 -0.000000 1.709734 -36.839008 -0.000001 0.113772 1.960660 -88.303875 129.234556 -0.000002 -0.669733 -0.113770 0.388340 0.016835 3.265637 89.760720 
0.000000 0.000000 0.000000 -0.000000 1.019410 -29.145998 -0.000000 0.000000 1.456275 -0.000000 -44.923841 0.000001 -0.000000 0.000002 1.471446 -0.000010 -1.133456 125.979397 0.625745 0.000001 0.917755 -0.000001 47.813950 0.000004 -0.629534 0.000001 0.940221 -0.000001 1.709737 -36.753320 -0.000000 0.113772 1.960660 -88.303875 129.143181 0.000003 -0.669733 -0.113771 0.388340 0.015515 3.266955 89.865885 
0.000000 0.000000 0.000000 -0.000000 1.019410 -29.063090 -0.000000 -0.000000 1.456275 0.000001 -44.924005 -0.000002 -0.000000 0.000002 1.471446 -0.000011 -1.133457 125.620908 0.625745 0.000001 0.917755 -0.000004 48.062054 0.000001 -0.629534 0.000000 0.940220 0.000005 1.709737 -36.648780 -0.000001 0.113772 1.960661 -88.303882 129.031726 -0.000000 -0.669733 -0.113771 0.388340 0.013908 3.268567 89.994170 
0.000000 0.000000 0.000000 -0.000000 1.019410 -28.965295 -0.000000 -0.000000 1.456275 -0.000000 -44.924210 -0.000000 -0.000000 0.000002 1.471446 -0.000014 -1.133457 125.198037 0.625745 0.000000 0.917755 -0.000000 48.354707 0.000003 -0.629533 0.000001 0.940221 0.000000 1.709737 -36.525482 -0.000001 0.113773 1.960661 -88.303875 128.900259 0.000003 -0.669733 -0.113770 0.388340 0.012003 3.270464 90.145486 
0.000000 0.000000 0.000000 -0.000000 1.019410 -28.852669 -0.000000 0.000000 1.456275 -0.000000 -44.924453 0.000000 -0.000000 0.000002 1.471446 -0.000011 -1.133457 124.711031 0.625745 0.000000 0.917755 -0.000002 48.691742 0.000001 -0.629534 0.000001 0.940220 0.000001 1.709735 -36.383496 -0.000000 0.113772 1.960660 -88.303882 128.748861 0.000004 -0.669733 -0.113771 0.388340 0.009806 3.272642 90.319758 
0.000000 0.000000 0.000000 -0.000000 1.019410 -28.725266 -0.000000 -0.000000 1.456275 0.000001 -44.924712 -0.000003 -0.000000 0.000002 1.471446 -0.000009 -1.133457 124.160162 0.625745 0.000000 0.917755 0.000000 49.072980 0.000002 -0.629533 0.000001 0.940220 0.000001 1.709737 -36.222870 -0.000001 0.113771 1.960660 -88.303875 128.577614 0.000004 -0.669733 -0.113771 0.388340 0.007312 3.275094 90.516877 
